<svg id="Layer_1" data-name="Layer 1" xmlns="http://www.w3.org/2000/svg" viewBox="0 0 432 142"><title>lsst_underline_logo</title><path d="M383.37,138.44c-.76,1.08-.75,2.94-1.75,3.79H-.17c.54-1.3,1-2.67,1.46-4.08h376a43.4,43.4,0,0,1,5.83,0C383.31,138.18,383.36,138.19,383.37,138.44Z" style="fill:#db1f26;fill-rule:evenodd"/><path d="M355,28.11c.72-2,1.75-4,2.33-6-3.46-.31-79.21-.45-85.74-.33-4.58.08-10.35.21-12.95,4.77a5.83,5.83,0,0,0-.14,5.69,8.91,8.91,0,0,0,4.22,3.3c2.08.95,15.13,4.65,15.66,4.79,13.75,3.15,27.81,6,37.87,12.82a46.19,46.19,0,0,1,6.92,7.64,33.16,33.16,0,0,1,1.26,3.47,18.51,18.51,0,0,1,.6,7.45A23.33,23.33,0,0,1,319,84.92c-6.42,6.94-16,10.61-24.87,13.08a163.19,163.19,0,0,1-31.64,5c-5.6.41-11.2.54-16.81.85-5.87.32-11.76.11-17.63,0-.38.09-9.5-.49-13.26-.87-.69.2-19.48-2.92-20-2.91-7.76-1.45-15.33-3.58-23-5.54a5,5,0,0,0-3.46.76c-1.47.7-3,1.31-4.49,1.88a65.16,65.16,0,0,1-11,3l-6.12,1c-10.87,1.84-21.83.82-32.78.77-11.22,0-34.61,0-35,.11-18.18,0-57.13-.13-57.54,0H11.26Q29.14,52,47.24,2.1H73.32c-2,5.38-16.71,46.52-17.9,49.74-.55,1.49-10,27.94-10.94,30.53,8.53.26,27.17.17,27.38.29H84.78l19.75-.06c.36,0,16.82-.21,17.43-.23a51.78,51.78,0,0,0,9-.44c2.35-.26,4.66-1.36,7-2,2.72-1.71,6-4.17,5.92-7.75-.12-4-4.26-6.29-7.47-7.61a81.34,81.34,0,0,0-12-3.59c-2.44-.59-9.83-2.19-11.07-2.48C112.51,58.26,97.88,54.31,97,54c-.64-.2-5.2-2.08-6.76-2.84A33.64,33.64,0,0,1,85,48.56c-7.34-3.28-9.55-12.62-7.94-19.93,1.86-8.47,8.67-14.12,16-17.94a84.48,84.48,0,0,1,8.78-4.13c2.41-.76,8.36-2.13,8.85-2.13,4.13-.78,8.24-1.56,12.53-2.18a15.94,15.94,0,0,0,2-.29,245.36,245.36,0,0,1,37-1.6c6.38.12,12.77.29,19.13.8s12.68,1.39,19,2.44c4.64.78,9.26,1.65,13.88,2.53,2.38.46,4.77.82,7.16,1.23,2.14.37,7.68,1.57,8.24,1.69a3.16,3.16,0,0,0,1.93-.39,51.38,51.38,0,0,1,4.79-1.89,98.46,98.46,0,0,1,10.08-2.72,90.12,90.12,0,0,1,10.38-1.59c1.85-.18,3.7-.26,5.55-.38,1.5-.1,33.93,0,33.93,0,5.74,0,116.47,0,135.61,0,.34,0-5.75,16-7.28,19.81-13,0-27.25,0-41.08,0-4.16,11.14-29,79-29.57,80.26H327.94Z" style="fill-rule:evenodd"/><g id="dmO4pr"><path d="M210.64,30.68c-.42,18.58,11.11,21.74,28.05,27.08,8.47,2.67,26,7,26.12,14.51.1,7.79-14.49,10.1-20.31,10.64-17.92,1.67-37.82-2-48.37-6.77-.54-17.88-10.78-24.85-27.09-30-9.11-2.87-27.91-4.41-28.05-12.58-.19-10.49,26.59-10.42,37.72-9.67C193.12,24.87,201.16,27.51,210.64,30.68Z" style="fill:#fff;fill-rule:evenodd"/><path d="M226.12,22.94c2.92,4.12-2.07,7.2-1,12.58,5.79,12.1,22.38,12.56,38.69,16.44,13.13,3.13,34.09,7.29,34.82,20.31,1.08,19.18-35.33,22.38-53.2,23.21-27.18,1.27-49.54-3.31-64.81-11.61,1.66-15.58-3.6-22.83-17.41-28.05-13.64-5.16-55.12-5.45-58-20.31-3.67-18.68,26.38-23.21,39.66-24.18C176,9,207.44,13.88,226.12,22.94Zm-47.4,1c-11.14-.75-37.91-.81-37.72,9.67.14,8.16,18.94,9.7,28.05,12.58,16.31,5.14,26.55,12.1,27.09,30,10.54,4.75,30.45,8.44,48.37,6.77,5.82-.54,20.41-2.85,20.31-10.64-.1-7.54-17.65-11.83-26.12-14.51-16.94-5.35-28.47-8.51-28.05-27.08C201.16,27.51,193.12,24.87,178.72,23.91Z" style="fill:#3476bb;fill-rule:evenodd"/></g><g id="_252lNN" data-name="252lNN"><path d="M195.87,77c.31-24-19.86-27.69-39.44-33.43-7.07-2.07-18.1-5.36-18.24-11.14C138,25.52,151.82,22,160.38,21.3c8.78-.74,19.34,0,29.09,1.52,7.36,1.12,20.79,2.3,23.66,7.09,1.57,2.62,1.38,9.45,2.46,12.16,5.45,13.57,22.46,14.8,38,19.75,7,2.24,16.12,5.68,16.27,12.16.19,8.54-12.72,11.48-21.2,12.16C229.36,87.66,206.44,86.18,195.87,77ZM166.29,34.47c4.31,4,18.35,6.76,26.13,12.16,7.95,5.52,12.65,12.75,14.3,24.82,4.92,3,10.55,3.92,18.73,5.06,5,.71,18.94,3.27,19.23-3,.25-5.63-14.19-7.57-19.72-10.13C214,58.28,204.17,48.63,202.78,36,201.54,32.4,164,25.3,166.29,34.47Z" style="fill:#bfdff1;fill-rule:evenodd"/></g><path d="M7.54,116.05H9.4L5,128.9h6.16l-.54,1.56h-8Z" style="fill:#231f20"/><path d="M21.41,130.46l.3-1.3h-.06A5.58,5.58,0,0,1,18,130.7c-2.09,0-2.66-1.48-2.14-3,.86-2.5,3.56-3.87,7.55-3.85l.07-.21c.29-.86.59-2.39-1.53-2.39a6.66,6.66,0,0,0-3,.77V120.8a8.22,8.22,0,0,1,3.72-.92c3.16,0,3.19,2.16,2.48,4.23L23.8,128a16.22,16.22,0,0,0-.68,2.48Zm1.54-5.28c-2,0-4.49.32-5.18,2.33-.42,1.22.19,1.8,1.15,1.8a3.92,3.92,0,0,0,3.1-1.73,2.72,2.72,0,0,0,.31-.6Z" style="fill:#231f20"/><path d="M31.51,123.34c.42-1.22.76-2.27,1-3.23h1.65l-.63,2h.08a4.79,4.79,0,0,1,3.65-2.27,1.78,1.78,0,0,1,.51.06l-.61,1.78a2.53,2.53,0,0,0-.62-.06,4.1,4.1,0,0,0-3.35,2.42,6.72,6.72,0,0,0-.39.88l-1.9,5.52H29.06Z" style="fill:#231f20"/><path d="M51.44,120.12c-.3.75-.63,1.58-1.06,2.84l-2.07,6c-.82,2.37-1.79,3.83-3.1,4.73A7.26,7.26,0,0,1,41,134.93a5.19,5.19,0,0,1-3.15-.86l1-1.43a4.44,4.44,0,0,0,2.76.81c1.92,0,3.68-1,4.58-3.61l.4-1.15h0a5.41,5.41,0,0,1-3.89,1.73c-2.57,0-3.65-2.18-2.67-5,1.21-3.51,4.18-5.5,6.55-5.5,1.8,0,2.46.94,2.61,1.8h0l.62-1.56Zm-3.35,4.08a2.82,2.82,0,0,0,.19-.86,1.79,1.79,0,0,0-1.94-2c-1.79,0-3.6,1.52-4.43,3.91-.7,2-.25,3.72,1.78,3.72a4.2,4.2,0,0,0,3.27-1.92,4.36,4.36,0,0,0,.5-1Z" style="fill:#231f20"/><path d="M56.7,125.63c-.83,2.54.43,3.59,2.31,3.59a8.22,8.22,0,0,0,3-.53L61.91,130a10.09,10.09,0,0,1-3.66.64c-3.19,0-4.37-2.1-3.29-5.22s3.76-5.58,6.77-5.58c3.38,0,3.25,3,2.6,4.88a8.76,8.76,0,0,1-.37.88Zm6-1.35c.43-1.2.56-3.06-1.55-3.06-1.9,0-3.34,1.75-3.94,3.06Z" style="fill:#231f20"/><path d="M76,128.2a5,5,0,0,0,3,.94,3.89,3.89,0,0,0,3.86-2.46c.46-1.35,0-2.12-1.73-2.87-2.06-.83-3.1-2.05-2.4-4.08a6.28,6.28,0,0,1,6-3.91,5.16,5.16,0,0,1,2.94.71l-1,1.52a4.39,4.39,0,0,0-2.5-.69,3.52,3.52,0,0,0-3.46,2.16c-.46,1.35.18,2,1.91,2.78,2.11.94,2.95,2.12,2.22,4.23a6.55,6.55,0,0,1-6.47,4.15,5.76,5.76,0,0,1-3.36-.92Z" style="fill:#231f20"/><path d="M93.07,120.12l.16,6.12c0,.68,0,1.5-.07,2.12h0c.41-.62.89-1.41,1.41-2.16l4.14-6.07h2l-5.36,7.38c-2.57,3.55-4.11,5.37-5.78,6.48a7.52,7.52,0,0,1-2.73,1.22l.07-1.58a7.53,7.53,0,0,0,2-.92,9.47,9.47,0,0,0,2.3-2.1,2,2,0,0,0,.3-.45,1.51,1.51,0,0,0,0-.49L91,120.12Z" style="fill:#231f20"/><path d="M104.57,122.92c.37-1.07.65-1.95.88-2.8h1.67l-.48,1.71h0a5.66,5.66,0,0,1,4.09-1.95c1.43,0,3.36.86,2.14,4.41l-2.13,6.18H108.9l2.05-6c.57-1.67.43-3.06-1.34-3.06a4.11,4.11,0,0,0-3.19,1.93,3.58,3.58,0,0,0-.43.88l-2.14,6.22H102Z" style="fill:#231f20"/><path d="M128.09,125.2a7.72,7.72,0,0,1-7,5.5c-2.8,0-4.25-2.05-3.13-5.32a7.73,7.73,0,0,1,7-5.5C127.91,119.88,129.18,122,128.09,125.2Zm-8.25.11c-.78,2.27-.07,4,1.77,4s3.72-1.69,4.53-4c.6-1.75.49-4-1.73-4S120.52,123.34,119.84,125.31Z" style="fill:#231f20"/><path d="M134.13,123.49c.46-1.32.78-2.39,1.08-3.38h1.69l-.53,1.77h0a6,6,0,0,1,4.37-2c2.5,0,3.65,2.12,2.57,5.26-1.28,3.72-4.18,5.56-6.62,5.56a2.45,2.45,0,0,1-2.63-1.62h0l-1.94,5.62h-1.86Zm.91,2.76a4.45,4.45,0,0,0-.18.77,1.92,1.92,0,0,0,2.06,2.2c2,0,3.7-1.62,4.52-4,.71-2.07.23-3.85-1.75-3.85a4.63,4.63,0,0,0-3.65,2.33,4.08,4.08,0,0,0-.39.77Z" style="fill:#231f20"/><path d="M153.82,117.14l-1,3h2.69l-.49,1.43H152.3l-1.92,5.58c-.44,1.28-.33,2,.72,2a4.74,4.74,0,0,0,1.14-.13l-.4,1.41a5.42,5.42,0,0,1-1.76.26,1.84,1.84,0,0,1-1.76-.79c-.34-.56-.22-1.48.2-2.7l1.94-5.64h-1.6l.49-1.43H151l.85-2.48Z" style="fill:#231f20"/><path d="M157.12,130.46l3.56-10.35h1.88L159,130.46Zm6.66-13.26a1.69,1.69,0,0,1-1.59,1.15c-.66,0-1-.51-.74-1.15A1.76,1.76,0,0,1,163,116C163.73,116,164,116.54,163.78,117.21Z" style="fill:#231f20"/><path d="M172.71,130.08a8.46,8.46,0,0,1-3.18.6c-3.12,0-4.42-2.12-3.33-5.28a8,8,0,0,1,7.45-5.5,5.06,5.06,0,0,1,2.42.54l-.93,1.45a3.44,3.44,0,0,0-2-.49,5.48,5.48,0,0,0-5,3.91c-.82,2.39.21,3.87,2.26,3.87a6.65,6.65,0,0,0,2.49-.51Z" style="fill:#231f20"/><path d="M186,128.2a5,5,0,0,0,3,.94,3.89,3.89,0,0,0,3.86-2.46c.46-1.35,0-2.12-1.73-2.87-2.06-.83-3.1-2.05-2.4-4.08a6.28,6.28,0,0,1,6-3.91,5.16,5.16,0,0,1,2.94.71l-1,1.52a4.39,4.39,0,0,0-2.5-.69,3.52,3.52,0,0,0-3.46,2.16c-.46,1.35.18,2,1.91,2.78,2.11.94,2.95,2.12,2.22,4.23a6.55,6.55,0,0,1-6.47,4.15,5.76,5.76,0,0,1-3.36-.92Z" style="fill:#231f20"/><path d="M208.71,127.64c-.37,1.07-.67,2-.89,2.82h-1.67l.47-1.69h0a5.81,5.81,0,0,1-4.08,1.92c-1.62,0-3.26-.9-2-4.53l2.08-6.05h1.88l-2,5.73c-.68,2-.54,3.29,1.17,3.29a4.16,4.16,0,0,0,3.07-1.71,3.76,3.76,0,0,0,.5-1l2.19-6.35h1.88Z" style="fill:#231f20"/><path d="M216.38,123.34c.42-1.22.76-2.27,1-3.23h1.65l-.63,2h.09a4.79,4.79,0,0,1,3.64-2.27,1.78,1.78,0,0,1,.51.06l-.61,1.78a2.53,2.53,0,0,0-.62-.06,4.1,4.1,0,0,0-3.35,2.42,6.85,6.85,0,0,0-.39.88l-1.9,5.52h-1.86Z" style="fill:#231f20"/><path d="M228.82,120.12l0,5.81a23.21,23.21,0,0,1-.08,2.65h.06c.53-.86,1.12-1.71,1.79-2.65l4-5.81h2L229,130.46h-1.79l-.37-10.35Z" style="fill:#231f20"/><path d="M240.39,125.63c-.83,2.54.43,3.59,2.31,3.59a8.21,8.21,0,0,0,3-.53l-.14,1.35a10.1,10.1,0,0,1-3.66.64c-3.19,0-4.37-2.1-3.29-5.22s3.76-5.58,6.77-5.58c3.38,0,3.25,3,2.6,4.88a8.66,8.66,0,0,1-.37.88Zm6-1.35c.43-1.2.56-3.06-1.55-3.06-1.9,0-3.34,1.75-3.94,3.06Z" style="fill:#231f20"/><path d="M255.71,120.12l.16,6.12c0,.68,0,1.5-.07,2.12h0c.41-.62.89-1.41,1.41-2.16l4.14-6.07h2L258,127.49c-2.57,3.55-4.11,5.37-5.78,6.48a7.52,7.52,0,0,1-2.73,1.22l.07-1.58a7.53,7.53,0,0,0,2-.92,9.48,9.48,0,0,0,2.3-2.1,2,2,0,0,0,.3-.45,1.5,1.5,0,0,0,0-.49l-.54-9.54Z" style="fill:#231f20"/><path d="M278.56,117.63h-4.38l.54-1.58h10.67l-.54,1.58h-4.4L276,130.46h-1.88Z" style="fill:#231f20"/><path d="M286.24,125.63c-.83,2.54.43,3.59,2.31,3.59a8.21,8.21,0,0,0,3-.53l-.14,1.35a10.1,10.1,0,0,1-3.66.64c-3.19,0-4.37-2.1-3.29-5.22s3.76-5.58,6.77-5.58c3.38,0,3.25,3,2.6,4.88a8.66,8.66,0,0,1-.37.88Zm6-1.35c.43-1.2.56-3.06-1.55-3.06-1.9,0-3.34,1.75-3.94,3.06Z" style="fill:#231f20"/><path d="M302.54,115.28h1.88l-5.23,15.18h-1.88Z" style="fill:#231f20"/><path d="M308.15,125.63c-.83,2.54.43,3.59,2.31,3.59a8.23,8.23,0,0,0,3.05-.53l-.14,1.35a10.09,10.09,0,0,1-3.66.64c-3.19,0-4.37-2.1-3.29-5.22s3.76-5.58,6.77-5.58c3.38,0,3.25,3,2.6,4.88a8.85,8.85,0,0,1-.37.88Zm6-1.35c.43-1.2.56-3.06-1.55-3.06-1.9,0-3.34,1.75-3.94,3.06Z" style="fill:#231f20"/><path d="M319.63,128.54a3.67,3.67,0,0,0,2.22.75,2.5,2.5,0,0,0,2.54-1.54c.31-.9-.06-1.39-1.27-1.9-1.63-.66-2.15-1.69-1.73-2.93a4.84,4.84,0,0,1,4.62-3,4,4,0,0,1,2.32.64l-.94,1.37a3,3,0,0,0-1.91-.6,2.28,2.28,0,0,0-2.22,1.41c-.29.86.19,1.24,1.36,1.75,1.56.68,2.17,1.58,1.64,3.12a5,5,0,0,1-4.94,3.1,4.59,4.59,0,0,1-2.66-.71Z" style="fill:#231f20"/><path d="M338.28,130.08a8.46,8.46,0,0,1-3.18.6c-3.12,0-4.42-2.12-3.33-5.28a8,8,0,0,1,7.45-5.5,5.06,5.06,0,0,1,2.42.54l-.93,1.45a3.44,3.44,0,0,0-2-.49,5.47,5.47,0,0,0-5,3.91c-.83,2.39.21,3.87,2.26,3.87a6.66,6.66,0,0,0,2.49-.51Z" style="fill:#231f20"/><path d="M354.47,125.2a7.72,7.72,0,0,1-7,5.5c-2.8,0-4.25-2.05-3.12-5.32a7.73,7.73,0,0,1,7-5.5C354.29,119.88,355.56,122,354.47,125.2Zm-8.25.11c-.78,2.27-.06,4,1.77,4s3.72-1.69,4.53-4c.6-1.75.49-4-1.73-4S346.9,123.34,346.22,125.31Z" style="fill:#231f20"/><path d="M360.51,123.49c.46-1.32.78-2.39,1.08-3.38h1.69l-.53,1.77h0a6,6,0,0,1,4.37-2c2.5,0,3.65,2.12,2.57,5.26-1.28,3.72-4.18,5.56-6.62,5.56a2.44,2.44,0,0,1-2.62-1.62h0l-1.94,5.62h-1.86Zm.91,2.76a4.34,4.34,0,0,0-.18.77,1.92,1.92,0,0,0,2.06,2.2c2,0,3.7-1.62,4.52-4,.71-2.07.23-3.85-1.75-3.85a4.63,4.63,0,0,0-3.64,2.33,4.09,4.09,0,0,0-.39.77Z" style="fill:#231f20"/><path d="M376.06,125.63c-.83,2.54.43,3.59,2.31,3.59a8.23,8.23,0,0,0,3.05-.53l-.14,1.35a10.09,10.09,0,0,1-3.66.64c-3.19,0-4.37-2.1-3.29-5.22s3.76-5.58,6.77-5.58c3.38,0,3.25,3,2.6,4.88a8.85,8.85,0,0,1-.37.88Zm6-1.35c.43-1.2.56-3.06-1.55-3.06-1.9,0-3.34,1.75-3.94,3.06Z" style="fill:#231f20"/></svg>