<?xml version="1.0" encoding="utf-8"?>
<!-- Generator: Adobe Illustrator 21.0.2, SVG Export Plug-In . SVG Version: 6.00 Build 0)  -->
<svg version="1.1" id="JIRA_-_Blue" xmlns="http://www.w3.org/2000/svg" xmlns:xlink="http://www.w3.org/1999/xlink" x="0px"
	 y="0px" viewBox="0 0 448.4 174.2" style="enable-background:new 0 0 448.4 174.2;" xml:space="preserve">
<style type="text/css">
	.st0{fill:#205081;}
</style>
<g>
	<g>
		<path class="st0" d="M223.9,42h-19.3c-1.7,0-3.1,1.4-3.1,3.2v117.6c0,1.7,1.4,3.1,3.1,3.1h19.3c1.7,0,3.1-1.4,3.1-3.1V45.2
			C227,43.4,225.6,42,223.9,42z"/>
		<path class="st0" d="M347.8,160.7l-26.9-38.8c11.6-4.8,17.5-14.9,17.5-30V76.1c0-23.6-12.3-34.1-39.9-34.1h-47.9
			c-1.7,0-3.1,1.4-3.1,3.2v117.6c0,1.7,1.4,3.1,3.1,3.1h19.3c1.7,0,3.1-1.4,3.1-3.1v-36.9h19.8l26.9,38.7c0.6,0.8,1.6,1.4,2.6,1.4
			h23.1l0,0c1.7,0,3.1-1.4,3.1-3.1C348.5,162,348.2,161.3,347.8,160.7z M273,64.9h24.5c12.7,0,15.2,5,15.2,13v12
			c0,10-3.8,13.4-15.2,13.4H273V64.9z"/>
	</g>
	<path class="st0" d="M411.2,44.2c-0.4-1.3-1.6-2.2-3-2.2h-29.4c-1.4,0-2.6,0.9-3,2.2l-37.1,117.6c-0.3,1-0.1,2,0.5,2.8
		s1.5,1.3,2.5,1.3H362c1.4,0,2.6-0.9,3-2.3l25.5-86.5c0,0,0.7-2.2,3-2.2c2.4,0,2.9,2.2,2.9,2.2l11.9,41H392c-1.4,0-2.6,0.9-3,2.3
		l-4.6,16.2c-0.3,0.9-0.1,2,0.5,2.8s1.5,1.2,2.5,1.2h27.5l7.1,22.9c0.4,1.3,1.6,2.2,3,2.2h20.2c1,0,1.9-0.5,2.5-1.3s0.8-1.9,0.5-2.8
		L411.2,44.2z"/>
	<path class="st0" d="M178.6,42H159c-1.7,0-3,1.3-3,3v92c0,11.6-8.8,15.4-14.8,15.7c-0.8,0-1.7,0.5-2.3,1.3
		c-0.5,0.8-0.7,1.7-0.4,2.6l4.8,15.5c0.4,1.3,1.8,2.1,4,2.1c18.7,0,34.3-14.7,34.3-34.4V45c0-0.8-0.3-1.6-0.9-2.1
		C180.1,42.3,179.4,42,178.6,42z"/>
	<g>
		<g>
			<g>
				<g>
					<path class="st0" d="M27.1,9.9c-6,0-10.9,4.9-10.9,10.9s4.9,10.9,10.9,10.9S38,26.8,38,20.8C37.9,14.8,33.1,9.9,27.1,9.9
						L27.1,9.9L27.1,9.9z"/>
				</g>
			</g>
			<g>
				<g>
					<path class="st0" d="M98.5,9.9c-6,0-10.9,4.9-10.9,10.9s4.9,10.9,10.9,10.9s10.9-4.9,10.9-10.9S104.5,9.9,98.5,9.9L98.5,9.9
						L98.5,9.9z"/>
				</g>
			</g>
		</g>
		<g>
			<g>
				<path class="st0" d="M62.8,0c-6,0-10.9,4.9-10.9,10.9s4.9,10.9,10.9,10.9s10.9-4.9,10.9-10.9C73.7,4.8,68.8,0,62.8,0L62.8,0
					L62.8,0z"/>
			</g>
		</g>
	</g>
	<g>
		<path class="st0" d="M124.3,40.3c-0.6-0.5-1.3-0.7-2.1-0.7c-0.4,0-0.8,0.1-1.2,0.2c-7.4,2.8-14.8,5-21.7,6.5
			c-1.4,0.3-2.5,1.4-3,2.6c-5,13.6-17.7,26.6-31,40.2c-0.5,0.5-1.3,1.2-2.5,1.2s-2-0.6-2.5-1.2c-13.3-13.6-26-26.5-31-40.2
			c-0.5-1.2-1.6-2.3-3-2.6c-6.8-1.6-14.3-3.8-21.7-6.6c-0.4-0.2-0.8-0.2-1.2-0.2c-0.7,0-1.5,0.2-2.1,0.7c-0.9,0.7-1.4,1.9-1.3,3
			c1.1,11.3,5.6,22.4,13.7,34c7.6,10.9,17.5,21,27.1,30.8c17.6,18,34.3,35,35.8,54.7c0.1,1.8,1.6,3.2,3.4,3.2h20.7
			c0.9,0,1.8-0.4,2.5-1.1c0.6-0.7,1-1.6,0.9-2.5c-0.7-13.2-5.6-26.4-15.2-40.4c-2-2.9-4.1-5.8-6.4-8.6c-0.9-1.1-0.5-2.5,0.2-3.3
			c0.7-0.7,1.4-1.4,2.1-2.1c9.6-9.8,19.5-19.9,27.1-30.8c8.1-11.6,12.6-22.6,13.7-34C125.7,42.2,125.2,41,124.3,40.3z"/>
		<g>
			<path class="st0" d="M40.5,123.4c-0.5-0.5-1.2-1-2.4-1c-1.5,0-2.5,1.1-2.8,1.6c-8.7,13.3-13.2,25.8-13.8,38.4
				c0,0.9,0.3,1.9,0.9,2.5c0.6,0.7,1.5,1.1,2.5,1.1h20.7c1.8,0,3.3-1.4,3.4-3.2c0.5-6.1,2.3-12.1,5.8-18.5c1.2-2.2,0.3-4.3-0.4-5.2
				C50.9,134.6,46.8,129.9,40.5,123.4z"/>
		</g>
		<path class="st0" d="M62.8,50.4c6.5,0,10.3-0.4,11.6-0.4c1.6,0,3.1,1.3,3.1,3.2c0,0.5-0.1,0.9-0.3,1.3
			c-0.9,2.3-4.8,10.6-12.1,17.7c-0.8,0.8-1.8,0.9-2.4,0.9l0,0c-0.6,0-1.6-0.1-2.4-0.9C53,65.1,49.1,56.8,48.2,54.5
			c-0.1-0.3-0.3-0.7-0.3-1.3c0-1.8,1.5-3.2,3.1-3.2C52.5,50,56.3,50.4,62.8,50.4L62.8,50.4z"/>
	</g>
</g>
</svg>
